<svg width="524" height="862" viewBox="0 0 524 862" fill="none" xmlns="http://www.w3.org/2000/svg">
<circle cx="445" cy="431" r="410" transform="rotate(-3 445 431)" stroke="black" stroke-width="4" stroke-linecap="round" stroke-linejoin="round"/>
<circle cx="445" cy="466" r="305" transform="rotate(75 445 466)" stroke="black" stroke-width="4" stroke-linecap="round" stroke-linejoin="round"/>
<circle cx="232.5" cy="78.5" r="13.5" fill="black"/>
<circle cx="445.5" cy="162.5" r="13.5" fill="black"/>
<circle cx="354.5" cy="757.5" r="13.5" fill="black"/>
<path d="M29.8892 790C41.6297 790 53.3703 790 65.1108 790C68.1887 790 71.1374 788.85 70.995 787.5C70.8522 786.145 68.4096 785 65.1108 785C53.3703 785 41.6297 785 29.8892 785C26.8113 785 23.8626 786.15 24.005 787.5C24.1478 788.855 26.5904 790 29.8892 790Z" fill="#01010C"/>
<path d="M5.71353 799H114.286C121.898 799 121.911 794 114.286 794H5.71353C-1.8982 794 -1.91081 799 5.71353 799Z" fill="#01010C"/>
<path d="M292.705 294H418.295C425.895 294 425.908 289 418.295 289H292.705C285.105 289 285.092 294 292.705 294Z" fill="#01010C"/>
<path d="M309.726 302H404.274C411.902 302 411.915 297 404.274 297H309.726C302.098 297 302.085 302 309.726 302Z" fill="#01010C"/>
<path d="M182.952 525.076C175.889 529.988 174.809 539.91 179.19 546.891C183.657 554.008 192.502 557.441 200.746 556.228C204.992 555.603 208.975 553.191 210.454 549.014C211.953 544.782 210.023 540.106 205.829 538.396C197.074 534.826 190.469 544.585 186.982 551.111C182.83 558.882 181.97 568.443 188.862 574.962C194.869 580.643 204.048 584.849 212.456 583.65C216.571 583.064 220.878 580.993 223.192 577.424C225.782 573.432 225.09 567.998 221.09 565.248C213.574 560.081 204.14 567.871 199.898 573.856C194.576 581.363 193.365 591.639 197.712 599.87C201.884 607.77 210.288 612.346 219.199 611.602C221.303 611.426 222.738 609.051 222.409 607.104C222.034 604.878 220.021 603.74 217.909 603.916C207.844 604.758 201.459 594.487 203.164 585.418C204.09 580.493 207.286 576.269 211.262 573.334C212.866 572.15 214.651 571.12 216.631 571.665C217.007 571.768 217.027 572.349 216.893 571.764C216.986 572.172 216.978 572.411 216.852 572.787C216.562 573.652 215.674 574.282 214.927 574.73C210.341 577.483 204.418 575.669 200.085 573.347C195.505 570.893 191.047 567.65 191.493 561.913C191.893 556.754 195.307 551.511 198.63 547.681C199.314 546.893 200.197 546.004 201.213 545.663C201.628 545.523 202.802 545.29 203.145 545.746C203.76 546.565 201.984 547.785 201.389 548.046C196.704 550.096 189.929 547.831 186.773 544.107C183.329 540.043 183.474 534.158 188.01 531.004C189.745 529.797 189.73 526.998 188.461 525.508C186.987 523.778 184.691 523.866 182.952 525.076Z" fill="#01010C"/>
<path d="M293.154 119.584C290.484 108.986 297.767 98.5513 307.832 95.4891C318.095 92.3668 329.474 96.4295 336.381 104.456C339.939 108.591 341.743 114.224 339.662 119.469C337.554 124.784 331.777 127.671 326.313 125.824C314.904 121.968 316.739 107.092 318.861 97.9183C321.387 86.9945 328.579 77.0905 340.669 76.5619C351.207 76.1013 363.556 79.6996 370.632 87.8491C374.096 91.8378 376.498 97.4129 375.73 102.769C374.871 108.76 369.649 113.407 363.499 112.72C351.942 111.43 349.407 96.0916 350.348 86.81C351.529 75.1664 358.983 64.2829 370.063 59.9906C380.698 55.871 392.613 58.4678 400.553 66.6C402.428 68.5199 401.816 71.9959 399.867 73.5943C397.639 75.421 394.751 74.839 392.869 72.9121C383.9 63.7264 369.15 68.2831 363.184 78.4174C359.944 83.9212 359.473 90.6404 360.833 96.7694C361.382 99.2429 362.234 101.719 364.594 102.843C365.042 103.056 365.548 102.514 364.928 102.965C365.36 102.65 365.553 102.415 365.748 101.948C366.194 100.876 365.869 99.5302 365.527 98.4787C363.428 92.0153 356.213 88.8292 350.103 87.4549C343.642 86.0019 336.638 85.4083 332.255 91.292C328.313 96.5832 327.197 104.463 327.18 110.91C327.176 112.235 327.279 113.825 327.97 114.999C328.251 115.478 329.185 116.68 329.896 116.527C331.174 116.252 330.491 113.6 330.137 112.855C327.354 106.986 318.943 103.523 312.786 104.476C306.068 105.515 301.272 111.291 302.986 118.097C303.642 120.701 301.281 123.379 298.811 123.754C295.944 124.19 293.812 122.195 293.154 119.584Z" fill="#01010C"/>
</svg>
