<svg width="15" height="14" viewBox="0 0 15 14" fill="none" xmlns="http://www.w3.org/2000/svg">
<path d="M9.75 13.75V12.2383H8.23828V13.75H9.75ZM8.23828 8.51172V12.2383H6.76172V8.51172H8.23828ZM14.25 7V9.98828H12.7383V7H14.25ZM12.7383 5.48828V7H11.2617V5.48828H12.7383ZM3.73828 7V8.51172H2.26172V7H3.73828ZM2.26172 5.48828V7H0.75V5.48828H2.26172ZM7.5 1.76172V0.25H9.01172V1.76172H7.5ZM1.875 1.375H4.125V3.625H1.875V1.375ZM5.25 4.75V0.25H0.75V4.75H5.25ZM1.875 10.375H4.125V12.625H1.875V10.375ZM5.25 13.75V9.25H0.75V13.75H5.25ZM10.875 1.375H13.125V3.625H10.875V1.375ZM14.25 4.75V0.25H9.75V4.75H14.25ZM12.7383 12.2383H14.25V13.75H11.2617V11.5H9.75V9.98828H12.7383V12.2383ZM11.2617 7V8.51172H8.23828V7H11.2617ZM8.23828 5.48828V7H6.76172V8.51172H5.25V7H3.73828V5.48828H8.23828ZM9.01172 4.75H5.98828V1.76172H7.5V3.23828H9.01172V4.75ZM3.5625 1.9375V3.0625H2.4375V1.9375H3.5625ZM3.5625 10.9375V12.0625H2.4375V10.9375H3.5625ZM12.5625 1.9375V3.0625H11.4375V1.9375H12.5625Z" fill="black"/>
</svg>
